<?xml version="1.0" encoding="UTF-8" standalone="no"?>
<!DOCTYPE svg PUBLIC "-//W3C//DTD SVG 1.1//EN" "http://www.w3.org/Graphics/SVG/1.1/DTD/svg11.dtd">
<svg width="100%" height="100%" viewBox="0 0 237 160" version="1.1" xmlns="http://www.w3.org/2000/svg" xmlns:xlink="http://www.w3.org/1999/xlink" xml:space="preserve" xmlns:serif="http://www.serif.com/" style="fill-rule:evenodd;clip-rule:evenodd;stroke-linecap:round;stroke-linejoin:round;stroke-miterlimit:1.5;">
    <g transform="matrix(0.994903,0,0,1,-71.4262,-410.478)">
        <path d="M190.417,567.183C190.417,567.183 171.531,566.945 163.718,565.558C151.89,563.459 144.078,558.871 144.078,558.871C131.769,553.708 119.41,541.146 109.96,520.551C125.429,521.216 155.815,532.814 169.585,541.988C172.571,543.978 170.782,538.499 172.418,540.398C173.82,542.026 160.698,530.289 158.037,528.818C151.742,525.338 149.954,523.83 135.777,518.731C121.411,513.563 105.066,509.982 105.066,509.982C105.066,509.982 97.643,499.746 92.094,489.613C84.931,476.533 82.041,463.43 85.221,465.37C96.95,472.527 154.518,495.036 170.747,505.337C171.815,506.015 172.783,506.839 173.838,503.928C175.203,500.163 169.551,496.462 169.551,496.462L135.717,478.023C135.717,478.023 95.615,459.279 89.765,455.91C67.06,442.833 72.667,410.465 73.526,410.984C107.391,431.472 130.79,439.429 150.423,448.123C163.404,453.87 173.098,456.007 180.941,465.229C181.352,465.712 185.754,471.144 186.546,472.921C188.533,477.38 191.883,483.131 191.629,493.273C191.123,513.487 190.417,567.183 190.417,567.183Z" style="fill:rgb(37,99,235);stroke:rgb(28,63,141);stroke-width:1px;"/>
    </g>
    <g transform="matrix(1.3207,0,0,1.32746,118.069,8.99977)">
        <path d="M90.027,111.947L71.895,111.947L71.895,103.112C69.949,105.11 68.054,106.774 66.21,108.106C64.366,109.438 62.548,110.5 60.755,111.294C58.962,112.088 57.144,112.652 55.3,112.985C53.456,113.318 51.561,113.484 49.615,113.484C45.671,113.484 42.149,112.895 39.05,111.717C35.951,110.539 33.301,108.861 31.098,106.685C28.896,104.508 27.218,101.895 26.066,98.848C24.913,95.8 24.337,92.381 24.337,88.591L24.337,33.734L42.469,33.734L42.469,87.285C42.469,89.282 42.738,90.985 43.276,92.394C43.814,93.803 44.556,94.955 45.504,95.851C46.452,96.748 47.566,97.388 48.846,97.772C50.127,98.156 51.51,98.348 52.995,98.348C55.351,98.348 57.669,97.785 59.948,96.658C62.228,95.531 64.251,94.033 66.018,92.164C67.785,90.294 69.206,88.117 70.282,85.633C71.358,83.149 71.895,80.524 71.895,77.758L71.895,33.734L90.027,33.734L90.027,111.947Z" style="fill:rgb(51,57,73);fill-rule:nonzero;"/>
    </g>
</svg>
